<?xml version="1.0" encoding="UTF-8" standalone="no"?>
<!DOCTYPE svg PUBLIC "-//W3C//DTD SVG 1.1//EN" "http://www.w3.org/Graphics/SVG/1.1/DTD/svg11.dtd">
<svg width="100%" height="100%" viewBox="0 0 100 100" version="1.1" xmlns="http://www.w3.org/2000/svg" xmlns:xlink="http://www.w3.org/1999/xlink" xml:space="preserve" xmlns:serif="http://www.serif.com/" style="fill-rule:evenodd;clip-rule:evenodd;stroke-linecap:round;stroke-linejoin:round;stroke-miterlimit:1;">
    <g transform="matrix(1,0,0,1,-111,-2.4869e-14)">
        <g transform="matrix(-1,8.57253e-16,-8.57253e-16,-1,326,100)">
            <g transform="matrix(-0.735294,9.00476e-17,-9.13916e-17,-0.746269,196.618,79.8507)">
                <path d="M111,-7.271L111,87.271C111,98.16 102.028,107 90.976,107L-4.976,107C-16.028,107 -25,98.16 -25,87.271L-25,-7.271C-25,-18.16 -16.028,-27 -4.976,-27L90.976,-27C102.028,-27 111,-18.16 111,-7.271Z" style="fill:rgb(255,106,155);"/>
            </g>
            <g transform="matrix(-0.720588,8.82466e-17,-8.95637e-17,-0.731343,195.985,79.2537)">
                <path d="M105.382,-21.533C108.851,-18.133 111,-13.425 111,-8.227L111,88.227C111,98.588 102.463,107 91.947,107L-5.947,107C-11.541,107 -16.576,104.619 -20.063,100.83" style="fill:none;stroke:rgb(239,85,136);stroke-width:2.75px;"/>
            </g>
            <g transform="matrix(-0.720588,8.82466e-17,-8.95637e-17,-0.731343,195.985,79.2537)">
                <path d="M-20.063,100.83C-23.13,97.498 -25,93.076 -25,88.227L-25,-8.227C-25,-18.588 -16.463,-27 -5.947,-27L91.947,-27C97.187,-27 101.936,-24.911 105.382,-21.533" style="fill:none;stroke:rgb(255,165,195);stroke-width:2.75px;"/>
            </g>
            <g transform="matrix(-0.588235,7.2038e-17,-7.31132e-17,-0.597015,190.294,73.8806)">
                <path d="M111,-13.6L111,93.6C111,100.996 104.906,107 97.4,107L-11.4,107C-18.906,107 -25,100.996 -25,93.6L-25,-13.6C-25,-20.996 -18.906,-27 -11.4,-27L97.4,-27C104.906,-27 111,-20.996 111,-13.6Z" style="fill:rgb(255,141,181);"/>
            </g>
            <g transform="matrix(-0.580882,7.11376e-17,-7.12854e-17,-0.58209,189.978,73.2836)">
                <path d="M106.625,-23.493C109.313,-21.042 111,-17.516 111,-13.6L111,93.6C111,100.996 104.983,107 97.572,107L-11.572,107C-15.059,107 -18.237,105.671 -20.625,103.493" style="fill:none;stroke:rgb(255,165,195);stroke-width:3.44px;"/>
            </g>
            <g transform="matrix(-0.580882,7.11376e-17,-7.12854e-17,-0.58209,189.978,73.2836)">
                <path d="M-20.625,103.493C-23.313,101.042 -25,97.516 -25,93.6L-25,-13.6C-25,-20.996 -18.983,-27 -11.572,-27L97.572,-27C101.059,-27 104.237,-25.671 106.625,-23.493" style="fill:none;stroke:rgb(239,85,136);stroke-width:3.44px;"/>
            </g>
        </g>
    </g>
</svg>
